# xmcd
#
# Track frame offsets:
#	150
#	15621
#	30919
#	42840
#	55898
#	69564
#	82241
#	94205
#	108355
#	121228
#	134278
#	148384
#	163717
#	180534
#	194201
#
# Disc length: 2776
#
# Revision: 1
# Processed by: cddbd v1.5.1PL0 Copyright (c) Steve Scherf et al.
# Submitted via: dBpowerAMP V4.0
# Normalized: r0:TRMNUM
#
DISCID=d70ad60f
DTITLE=Peão Carreiro e Zé Paulo - Meu Cajuzinho
DYEAR=1900
DGENRE=Sertanejo (BR)
TTITLE0=Meu Cajuzinho
TTITLE1=Chega
TTITLE2=Só Penso Nela
TTITLE3=Vem Cá Meu Bem
TTITLE4=Você Brincou Comigo
TTITLE5=Irmãos da Estrada
TTITLE6=Machão
TTITLE7=Palavras do Coração
TTITLE8=Abafa Meu Grito
TTITLE9=Tudo Errado
TTITLE10=O Amor Não Vê Defeito
TTITLE11=No Ponteio da Viola
TTITLE12=Porta do Mundo
TTITLE13=Seguindo Seus Passos
TTITLE14=Obra Divina
EXTD=
EXTT0=
EXTT1=
EXTT2=
EXTT3=
EXTT4=
EXTT5=
EXTT6=
EXTT7=
EXTT8=
EXTT9=
EXTT10=
EXTT11=
EXTT12=
EXTT13=
EXTT14=
PLAYORDER=
